<mxfile host="app.diagrams.net" modified="2023-12-26T08:14:25.860Z" agent="Mozilla/5.0 (Windows NT 10.0; Win64; x64) AppleWebKit/537.36 (KHTML, like Gecko) Chrome/120.0.0.0 Safari/537.36" version="22.1.11" etag="Ju_7JLRjMYkxfsrJ2a6-" type="github">
  <diagram name="第 1 页" id="ibW-NT9UqRI7LsNojlbc">
    <mxGraphModel>
      <root>
        <mxCell id="0" />
        <mxCell id="1" parent="0" />
      </root>
    </mxGraphModel>
  </diagram>
</mxfile>
